<svg width="47" height="30" viewBox="0 0 47 30" fill="none" xmlns="http://www.w3.org/2000/svg">
<g id="Logo" clip-path="url(#clip0_741_1457)">
<path id="Vector" d="M43.9968 4.41151C43.9968 4.44532 43.9968 4.48759 43.988 4.51295C43.9439 4.84263 43.9439 5.17232 43.9703 5.51046C43.988 5.59499 44.0056 5.67953 44.0761 5.74716C44.1905 5.87395 44.3667 5.8486 44.4372 5.69643C44.4724 5.62035 44.4724 5.54427 44.4547 5.46819C44.3667 5.14696 44.3491 4.80882 44.3403 4.47913C44.3403 4.46223 44.3403 4.43686 44.3403 4.41151C44.4372 4.40305 44.5252 4.3946 44.6045 4.3946C44.6662 4.38615 44.719 4.37769 44.7631 4.35233C44.8951 4.28471 44.8951 4.141 44.7542 4.07337C44.7014 4.04801 44.6309 4.03955 44.5693 4.03955C44.3491 4.04801 44.1289 4.04801 43.9087 4.04801C43.8294 4.04801 43.7501 4.05646 43.6708 4.06491C43.6268 4.07337 43.574 4.07337 43.5388 4.09873C43.4771 4.12409 43.4419 4.16635 43.4419 4.22553C43.4507 4.28471 43.4771 4.31852 43.5388 4.34388C43.574 4.36924 43.618 4.37769 43.6621 4.37769C43.7677 4.38615 43.8823 4.40305 43.9968 4.41151ZM46.4189 4.80037C46.4189 4.80882 46.4277 4.81727 46.4277 4.81727C46.4629 5.04551 46.4982 5.26531 46.5246 5.4851C46.5334 5.56117 46.5422 5.6288 46.5951 5.68798C46.7095 5.83168 46.8857 5.81478 46.9649 5.66262C47.0002 5.58654 47.009 5.51046 46.9914 5.42592C46.9386 5.17232 46.9121 4.91871 46.8593 4.67356C46.824 4.5214 46.78 4.37769 46.736 4.24244C46.7095 4.1579 46.6479 4.09872 46.5422 4.09027C46.4365 4.07337 46.3572 4.12409 46.3132 4.20017C46.2603 4.26779 46.2163 4.33542 46.1811 4.41151C46.1194 4.54676 46.0666 4.68202 45.9961 4.80882C45.9873 4.84263 45.9785 4.86799 45.9609 4.89335C45.9521 4.87644 45.9433 4.86799 45.9433 4.86799C45.8288 4.65666 45.7231 4.44532 45.6086 4.24244C45.5909 4.22553 45.5821 4.20862 45.5733 4.19171C45.5205 4.11564 45.4589 4.07337 45.362 4.07337C45.2739 4.08182 45.2034 4.13254 45.1594 4.20862C45.1417 4.24244 45.1418 4.26779 45.133 4.30161C45.0977 4.57212 45.0537 4.84263 45.0185 5.11314C45.0008 5.26531 44.992 5.41747 44.992 5.56963C44.9832 5.60344 44.992 5.64571 45.0096 5.67953C45.0273 5.74715 45.0801 5.78942 45.1505 5.79787C45.2386 5.80633 45.3003 5.78097 45.3267 5.71334C45.3531 5.66262 45.362 5.62035 45.3708 5.57809C45.406 5.42592 45.4324 5.28221 45.4589 5.13851C45.4765 5.05397 45.4852 4.98634 45.5117 4.89335C45.5293 4.92717 45.5469 4.95253 45.5645 4.97789C45.6438 5.07933 45.7231 5.18077 45.82 5.26531C45.9168 5.33293 45.9961 5.32448 46.0754 5.2484C46.093 5.23149 46.1018 5.22304 46.1194 5.20613C46.1987 5.08778 46.2956 4.96944 46.3748 4.85108C46.3925 4.83418 46.4013 4.81727 46.4189 4.80037Z" fill="#3A3B7B"/>
<path id="Vector_2" d="M26.1242 4.5776C26.063 4.73826 26.0513 4.854 26.0795 4.9502C26.1108 5.08102 26.1918 5.12384 26.3018 5.09057C27.3363 4.84504 29.6049 5.54196 30.4448 5.73621C30.6428 5.77699 30.804 5.53158 30.6688 5.31155C30.4716 5.09846 28.204 4.18617 27.3388 4.13643C26.9997 4.11803 26.3934 4.03456 26.1242 4.5776Z" fill="#3A3B7B"/>
<path id="Vector_3" d="M34.9906 1.62435C35.1008 1.68543 35.1625 1.7437 35.1929 1.80879C35.2382 1.89419 35.2143 1.95327 35.1382 1.98341C34.4543 2.30374 33.5443 3.68283 33.177 4.15847C33.088 4.26788 32.8826 4.2043 32.8516 4.02437C32.8579 3.82092 33.6646 2.3243 34.1148 1.91667C34.2917 1.75752 34.584 1.44525 34.9906 1.62435Z" fill="#3A3B7B"/>
<path id="Vector_4" d="M29.5445 0.945531C29.6769 0.849714 29.8146 0.816137 29.8849 0.878406C30.9167 1.7253 31.4638 3.06644 31.8026 4.29422C31.8154 4.32283 31.8162 4.36388 31.806 4.4067C31.8017 4.4433 31.7739 4.48196 31.7296 4.51187C31.6824 4.5449 31.6417 4.55496 31.6225 4.5265C31.1703 3.93617 28.5875 1.63931 29.5445 0.945531Z" fill="#3A3B7B"/>
<path id="Vector_5" d="M7.69524 15.6286C7.94253 15.4519 8.21137 15.3048 8.49586 15.1906C8.7935 15.109 9.11075 15.1225 9.39966 15.2293C9.68851 15.336 9.93338 15.5301 10.0971 15.7823C10.2435 16.0338 10.3008 16.3242 10.2604 16.6097C10.2199 16.8952 10.084 17.1603 9.87289 17.3652C9.70926 17.5313 9.52348 17.676 9.3205 17.7956C8.41582 18.3565 7.50308 18.8867 6.59039 19.4476C6.40363 19.588 6.20551 19.714 5.99793 19.8242C5.68217 19.9753 5.32132 20.0158 4.97776 19.9386C4.6342 19.8615 4.32955 19.6715 4.11648 19.4016C3.95719 19.2104 3.82277 19.0014 3.71616 18.7791C2.8515 17.0348 1.95481 15.2982 1.12217 13.5231C0.737866 12.7548 0.425627 11.8711 0.121393 11.0181C-0.010233 10.7703 -0.0359366 10.483 0.0497553 10.2173C0.135447 9.95152 0.325774 9.72836 0.580249 9.59522C0.834727 9.46208 1.13327 9.42952 1.4124 9.5044C1.69152 9.57927 1.92921 9.75571 2.0749 9.99614C2.52271 10.5673 2.91911 11.174 3.25981 11.8096C4.12448 13.3464 4.94912 14.8832 5.78176 16.374C5.83024 16.4564 5.8837 16.5358 5.94188 16.6122C6.56859 16.3593 7.15803 16.0286 7.69524 15.6286Z" fill="#3A3B7B"/>
<path id="Vector_6" d="M16.6352 15.0925C14.6577 17.3132 11.3432 16.7522 9.67789 13.8937C8.49295 11.8651 8.28481 8.51481 10.8628 6.40168C11.4133 5.95928 12.0716 5.65791 12.7763 5.52568C13.6403 5.4068 14.5213 5.5531 15.2935 5.94366C16.0656 6.33422 16.6894 6.94906 17.0756 7.70031C18.4847 10.1592 18.2845 13.2943 16.6352 15.0925ZM15.8346 9.91334C15.6245 9.30908 15.2031 8.79321 14.6417 8.45332C14.324 8.23602 13.938 8.13037 13.5487 8.15416C13.1594 8.17795 12.7905 8.32974 12.5041 8.58395C11.3592 9.55987 11.119 11.8728 11.9516 13.2483C12.0578 13.4726 12.2136 13.6719 12.4084 13.8323C12.6032 13.9927 12.8321 14.1104 13.0792 14.1769C13.3263 14.2436 13.5855 14.2575 13.8389 14.2179C14.0922 14.1782 14.3334 14.086 14.5457 13.9475C15.1663 13.4857 15.6216 12.8498 15.8483 12.1282C16.075 11.4066 16.0618 10.6351 15.8107 9.92105L15.8346 9.91334Z" fill="#3A3B7B"/>
<path id="Vector_7" d="M24.7055 10.8816C24.5031 10.9234 24.294 10.9259 24.0904 10.8889C23.887 10.8519 23.6932 10.7763 23.5207 10.6665C23.3697 10.5836 23.2397 10.4696 23.14 10.3327C23.0405 10.1958 22.9737 10.0395 22.9446 9.87484C22.9155 9.71026 22.9248 9.54154 22.9718 9.38078C23.0188 9.22003 23.1024 9.07127 23.2164 8.94519C23.4152 8.69184 23.6973 8.51045 24.0171 8.43037C24.8518 8.19785 25.7112 8.05608 26.579 8.00776C26.7697 7.98648 26.9629 8.00196 27.1472 8.05331C27.3316 8.10472 27.5033 8.19086 27.6525 8.30686C27.8016 8.42279 27.9252 8.56621 28.0158 8.72861C28.1064 8.89101 28.1623 9.06916 28.1802 9.25259C28.4304 10.1536 28.4578 11.0982 28.2603 12.0112C27.5398 14.9619 25.0578 15.9762 22.2717 15.031C21.4896 14.7783 20.8039 14.3075 20.3022 13.6786C19.633 12.9214 19.1586 12.0239 18.9171 11.0584C18.7214 10.1986 18.7428 9.30644 18.9797 8.45628C19.2164 7.60611 19.6616 6.82262 20.2781 6.17124C20.8632 5.46327 21.6226 4.90609 22.4879 4.54988C23.0346 4.26064 23.6744 4.1784 24.2813 4.31936C24.4189 4.35593 24.5439 4.42717 24.6432 4.52571C24.7425 4.62426 24.8125 4.7465 24.846 4.87978C24.8795 5.01305 24.8752 5.15249 24.8336 5.28365C24.792 5.4148 24.7147 5.53289 24.6095 5.62567C24.4096 5.79937 24.1924 5.95379 23.961 6.08671C23.2492 6.52176 22.6298 7.08235 22.1356 7.73879C21.8116 8.16357 21.5885 8.65137 21.482 9.16776C21.3755 9.68416 21.3881 10.2167 21.5191 10.728C21.7007 11.425 22.1036 12.0507 22.672 12.5183C24.4333 14.0552 26.7231 12.5721 26.3228 10.4743C25.7384 10.6127 25.226 10.7587 24.7055 10.8816Z" fill="#3A3B7B"/>
<path id="Vector_8" d="M35.4661 15.2154C32.8641 16.7523 29.9019 15.2154 29.2533 11.9881C28.781 9.68291 29.6777 6.45555 32.8161 5.22609C33.4839 4.97013 34.2081 4.88026 34.9217 4.96483C35.7791 5.11546 36.5656 5.52056 37.1703 6.12301C37.775 6.72546 38.1675 7.49486 38.2923 8.32281C38.8207 11.066 37.6198 13.9937 35.4661 15.2154ZM36.3709 10.044C36.3701 9.40569 36.1348 8.78799 35.7064 8.29974C35.4773 7.99774 35.1463 7.78136 34.7696 7.68744C34.3929 7.59359 33.994 7.62799 33.6407 7.78492C32.2317 8.36888 31.2389 10.4897 31.5992 12.0496C31.6267 12.2944 31.7096 12.5305 31.842 12.7414C31.9745 12.9522 32.1534 13.1327 32.3661 13.2703C32.5789 13.4079 32.8204 13.4992 33.0737 13.5379C33.3271 13.5766 33.5862 13.5617 33.8329 13.4942C34.5777 13.2445 35.2226 12.7778 35.6776 12.1592C36.1326 11.5407 36.375 10.8012 36.3709 10.044Z" fill="#3A3B7B"/>
<path id="Vector_9" d="M40.9237 15.8609C40.8844 16.1421 40.7304 16.3969 40.4954 16.5691C40.2604 16.7413 39.9637 16.8169 39.6707 16.7792C39.3777 16.7415 39.1123 16.5936 38.9329 16.368C38.7534 16.1425 38.6747 15.8578 38.714 15.5766C38.7533 15.2953 38.9074 15.0406 39.1423 14.8684C39.3773 14.6962 39.6739 14.6206 39.9669 14.6583C40.26 14.696 40.5254 14.8439 40.7048 15.0694C40.8842 15.295 40.963 15.5797 40.9237 15.8609ZM40.2271 5.49498C40.3794 5.27178 40.6028 5.1018 40.864 5.01041C41.1251 4.91901 41.41 4.91109 41.6763 4.98783C41.9469 5.05282 42.186 5.20508 42.3537 5.4191C42.5213 5.63313 42.6071 5.89593 42.597 6.1635C42.5617 6.59268 42.4948 7.01893 42.3968 7.43905C42.1326 8.86064 41.8764 10.2822 41.5962 11.6884C41.4681 12.2494 41.3 12.7872 41.1158 13.3558C41.0518 13.5336 40.9447 13.6942 40.8036 13.8246C40.7159 13.9227 40.6038 13.9979 40.4777 14.0433C40.3516 14.0888 40.2156 14.1029 40.0824 14.0845C39.9491 14.0661 39.8227 14.0158 39.7151 13.9381C39.6075 13.8604 39.522 13.758 39.4666 13.6402C39.3714 13.4289 39.3197 13.2018 39.3144 12.9717C39.3144 12.0188 39.3144 11.0583 39.3785 10.0978C39.4873 8.72698 39.7014 7.36575 40.019 6.02518C40.0564 5.84558 40.1268 5.67383 40.2271 5.51803V5.49498Z" fill="#3A3B7B"/>
<path id="Vector_10" fill-rule="evenodd" clip-rule="evenodd" d="M4.31288 22.0357C4.21835 22.2383 4.19242 22.4641 4.23862 22.6814C4.26935 22.9678 4.33685 23.2496 4.43958 23.5202C4.56783 23.8516 4.71135 24.1793 4.88831 24.5832C4.92901 24.6761 4.97154 24.7731 5.01604 24.8752C5.25468 25.4224 5.55411 26.1217 5.95351 27.1337C6.06655 27.4212 6.16694 27.7111 6.26803 28.003C6.30887 28.1209 6.34985 28.2392 6.3918 28.3577C6.54217 28.7793 6.80092 29.158 7.14388 29.4582C7.28951 29.6231 7.48268 29.7434 7.69929 29.8035C7.92012 29.8648 8.15499 29.8609 8.37347 29.7923C8.59195 29.7237 8.78385 29.5936 8.92424 29.4189C9.06188 29.2476 9.14373 29.0412 9.15964 28.8255C9.24894 28.4054 9.21846 27.9698 9.07128 27.5648C8.8377 26.8923 8.57161 26.2189 8.26476 25.5602L8.26335 25.5573C7.75857 24.5267 7.24547 23.5033 6.70808 22.4794L6.70406 22.4723C6.54675 22.2055 6.3423 21.9671 6.09992 21.7676C5.94256 21.5896 5.72551 21.4695 5.48581 21.4281C5.241 21.3859 4.98852 21.4285 4.77343 21.5483C4.56996 21.6599 4.40867 21.8305 4.31288 22.0357Z" fill="#3A3B7B"/>
<path id="Vector_11" fill-rule="evenodd" clip-rule="evenodd" d="M12.0224 19.4981C11.2309 19.3014 10.4043 19.2727 9.60018 19.4142C8.97737 19.473 8.36482 19.6109 7.93947 19.884C7.72314 20.023 7.54823 20.2015 7.45094 20.4284C7.35311 20.6565 7.34063 20.9173 7.42079 21.208C7.56717 21.7404 7.75725 22.2581 7.94666 22.7741L7.97734 22.8576L7.97808 22.8595C8.54839 24.3585 9.12414 25.8525 9.70513 27.3413C9.77288 27.5759 9.86869 27.8023 9.99062 28.0158L9.9929 28.0197C10.154 28.2849 10.3606 28.5221 10.604 28.7214C10.7257 28.8309 10.8762 28.9067 11.0395 28.9406C11.2043 28.9747 11.3757 28.9648 11.535 28.9119C11.6944 28.8589 11.8356 28.765 11.9431 28.6403C12.049 28.5176 12.1182 28.3699 12.1437 28.2126C12.2487 27.7854 12.2151 27.3375 12.0472 26.9292C11.9948 26.7918 11.9537 26.6513 11.9104 26.5035C11.896 26.4542 11.8814 26.404 11.8659 26.3529C13.1958 25.854 14.6109 25.1831 15.1085 23.6224C15.3033 23.083 15.3195 22.499 15.1549 21.9504C14.9901 21.4012 14.6521 20.9144 14.1873 20.557C13.5548 20.0568 12.8159 19.6953 12.0224 19.4981ZM9.82847 21.4125C9.85466 21.4052 9.88104 21.3985 9.9075 21.3922C10.7733 21.2616 11.6591 21.4357 12.4019 21.8823C12.7292 22.1007 12.8633 22.3435 12.8863 22.5771C12.9101 22.8176 12.8189 23.0782 12.6359 23.3287C12.2901 23.8019 11.6589 24.1807 11.0888 24.2513C10.6732 23.3326 10.2511 22.3768 9.82847 21.4125Z" fill="#3A3B7B"/>
<path id="Vector_12" d="M17.2989 17.8165C18.2414 17.3988 19.409 17.3266 20.3226 17.6203C20.5527 17.6847 20.7523 17.8238 20.8873 18.0139C21.0215 18.2029 21.0834 18.4306 21.0627 18.6583C21.0613 18.806 21.0235 18.9514 20.9524 19.0826C20.8801 19.2161 20.7752 19.3309 20.6469 19.4174C20.5185 19.5038 20.3703 19.5594 20.2149 19.5792C20.0594 19.5991 19.9012 19.5828 19.7537 19.5316L19.7425 19.5277L19.732 19.5223C19.6565 19.4844 19.5763 19.4559 19.4934 19.4373L19.4882 19.4362C18.8455 19.2724 18.2393 19.5438 18.0178 19.8774C17.9122 20.0364 17.8991 20.197 17.9871 20.343C18.0813 20.4994 18.3123 20.675 18.7798 20.8001C18.9084 20.8339 19.0402 20.8666 19.1739 20.8998C19.5436 20.9917 19.9278 21.0872 20.2993 21.2194L20.3007 21.22C22.0146 21.8458 22.6528 23.1421 22.4343 24.3613C22.2181 25.5669 21.169 26.6642 19.5914 26.923C19.0173 27.0451 18.4199 27.0213 17.8582 26.854C17.2952 26.6861 16.7876 26.3799 16.386 25.9654L16.3756 25.9546C16.2488 25.7985 16.1635 25.615 16.1257 25.4204C16.091 25.2448 16.1093 25.0633 16.1784 24.8972C16.2472 24.7322 16.3635 24.5894 16.5136 24.4853C16.6721 24.3673 16.8632 24.2965 17.0632 24.2818C17.2625 24.2671 17.462 24.3087 17.6371 24.4013C17.8119 24.4824 17.9745 24.5858 18.1205 24.7088L18.1232 24.711C18.3815 24.9377 18.6939 24.9968 18.9935 24.942C19.2974 24.8866 19.5833 24.7139 19.7671 24.4849C19.9497 24.2573 20.023 23.987 19.936 23.7245C19.8485 23.4601 19.5852 23.164 19.0068 22.9163C18.8556 22.8547 18.6988 22.805 18.5357 22.7566C18.4917 22.7436 18.447 22.7306 18.4017 22.7174C18.2812 22.6823 18.1571 22.6461 18.0354 22.6062C17.9516 22.5788 17.8685 22.5528 17.7862 22.5271C17.5612 22.4567 17.3418 22.3882 17.1307 22.2963C16.6713 22.1461 16.2743 21.8578 15.999 21.474C15.7225 21.0887 15.5834 20.628 15.6023 20.1605C15.6038 19.0214 16.3513 18.2367 17.2989 17.8165Z" fill="#3A3B7B"/>
<path id="Vector_13" d="M29.2489 17.6953C29.0661 17.6096 28.864 17.5689 28.6608 17.5769C28.4576 17.585 28.2597 17.6414 28.0849 17.7412C27.9112 17.8403 27.7658 17.9792 27.6616 18.1453C27.566 18.2852 27.4999 18.4417 27.4669 18.606C27.4339 18.7702 27.4347 18.9389 27.4692 19.1027C27.5032 19.3132 27.541 19.5179 27.5782 19.7198C27.6399 20.0539 27.7 20.3805 27.7396 20.7135L27.741 20.7219C27.8312 21.2441 27.8784 21.7722 27.8827 22.3015L27.8831 22.309C27.9139 22.8805 27.711 23.441 27.3178 23.8714L27.3116 23.879C27.1837 24.0363 27.0127 24.1564 26.8176 24.2258C26.6226 24.2952 26.4114 24.3112 26.2075 24.2719C26.0036 24.2326 25.8151 24.1397 25.6631 24.0034C25.5111 23.8672 25.4015 23.6925 25.3467 23.5C25.2299 23.0942 25.1623 22.6768 25.1451 22.2562L25.3447 19.207C25.3476 19.1672 25.351 19.1264 25.3544 19.0851C25.362 18.9925 25.3698 18.8982 25.373 18.8102C25.3777 18.6808 25.3737 18.5476 25.3422 18.4216C25.3101 18.2928 25.2489 18.1703 25.1404 18.066C25.033 17.9627 24.8879 17.8865 24.7055 17.8346C24.3754 17.7429 24.0964 17.7458 23.8639 17.8405C23.6312 17.9353 23.4718 18.1111 23.359 18.3142C23.2471 18.5157 23.1752 18.7541 23.1208 18.993C23.0805 19.1702 23.048 19.3563 23.0172 19.5334C23.0065 19.5944 22.9961 19.6543 22.9856 19.7125L22.9853 19.7142C22.8204 20.6854 22.7713 21.6716 22.839 22.6535C22.8516 23.1841 22.9669 23.7079 23.1791 24.1981C23.4185 24.8305 23.852 25.3785 24.4225 25.7697C24.9942 26.1616 25.6765 26.3776 26.3789 26.389C27.0814 26.4004 27.7709 26.2067 28.3561 25.8336C28.9404 25.461 29.3932 24.927 29.6546 24.3023C30.0203 23.5064 30.1921 22.6409 30.1566 21.7717C30.1352 21.1371 30.0992 20.4977 30.0634 19.8615C30.0458 19.5494 30.0283 19.238 30.0126 18.9284C30.0046 18.6181 29.898 18.3175 29.7069 18.0669C29.5887 17.9086 29.4313 17.7808 29.2489 17.6953Z" fill="#3A3B7B"/>
<path id="Vector_14" d="M35.7175 22.4764C35.699 22.499 35.6794 22.5224 35.659 22.5467C35.5104 21.7236 35.3726 20.9008 35.2346 20.0768C35.1851 19.7811 35.1354 19.4842 35.0853 19.1881L35.0797 19.1551L35.0614 19.1266C35.027 19.0728 35.0236 19.0202 35.0236 18.9079V18.8949L35.0215 18.882C34.9842 18.6501 34.8748 18.4342 34.7079 18.2627C34.5413 18.0917 34.3251 17.9727 34.0872 17.921C33.8497 17.8648 33.6001 17.8772 33.3699 17.9567C33.1403 18.036 32.9401 18.1784 32.7944 18.3663C32.6733 18.5104 32.574 18.6703 32.4996 18.8412C32.3307 19.2092 32.1604 19.5782 31.9896 19.9481L31.9866 19.9545C31.5602 20.8781 31.1309 21.8079 30.7141 22.745L30.7128 22.748C30.4569 23.3556 30.2457 23.9958 30.0352 24.6341C29.9932 24.7615 29.9511 24.8889 29.9088 25.0159C29.8328 25.2173 29.7995 25.4312 29.8109 25.6451C29.7971 25.8366 29.8448 26.0276 29.9478 26.1923C30.0528 26.3603 30.2102 26.4926 30.3976 26.5704C30.5962 26.654 30.8182 26.6717 31.0286 26.6208C31.2385 26.57 31.4248 26.4537 31.5584 26.2903C31.7289 26.0889 31.8756 25.8693 31.9953 25.6367C32.3484 24.9434 32.6859 24.2418 33.0218 23.5431C33.1518 23.2729 33.2781 23.0309 33.4217 22.7673C33.4316 22.7998 33.4417 22.8315 33.4521 22.8633C33.6027 23.4996 33.8569 24.1091 34.2053 24.6695C34.2712 24.7882 34.3631 24.8919 34.4745 24.9736C34.5873 25.0563 34.7175 25.1143 34.856 25.1437C34.9946 25.1732 35.1381 25.1733 35.2767 25.1441C35.4151 25.115 35.5457 25.0569 35.6585 24.9747L35.8819 24.8142L37.6158 23.4125L37.5132 24.0396C37.3725 24.9016 37.2328 25.7565 37.0844 26.6115C36.9874 26.9905 36.9875 27.3863 37.0849 27.7652C37.127 27.9784 37.2344 28.1747 37.3934 28.329C37.5538 28.4847 37.7591 28.5904 37.9828 28.6326C38.2065 28.6747 38.4383 28.6513 38.648 28.5655C38.8547 28.4809 39.0305 28.3395 39.1533 28.1592C39.4392 27.8188 39.6171 27.4066 39.666 26.9718C39.7396 26.3578 39.8227 25.7355 39.9059 25.1133C40.0017 24.3961 40.0976 23.6792 40.1785 22.976L40.1787 22.9738C40.2566 22.204 40.2943 21.4311 40.2917 20.6578C40.3087 20.4134 40.2453 20.1699 40.1102 19.9618C39.9747 19.753 39.7739 19.5907 39.5366 19.4978C39.2898 19.3901 39.0135 19.3613 38.7484 19.4158C38.485 19.4698 38.2466 19.6031 38.0677 19.7961C37.7479 20.08 37.4479 20.3838 37.1696 20.7055L37.1677 20.7076C36.8639 21.071 36.5621 21.4415 36.2624 21.8096C36.0801 22.0333 35.8983 22.2566 35.7175 22.4764Z" fill="#3A3B7B"/>
</g>
<defs>
<clipPath id="clip0_741_1457">
<rect width="47" height="29" fill="white" transform="translate(0 0.846802)"/>
</clipPath>
</defs>
</svg>
