<svg width="55" height="31" viewBox="0 0 55 31" fill="none" xmlns="http://www.w3.org/2000/svg">
<g id="Logo" clip-path="url(#clip0_741_1481)">
<path id="Vector" d="M54.9957 11.5165C55.0015 11.4748 55.0015 11.4326 54.9957 11.3909C55.0011 11.3569 55.0011 11.3223 54.9957 11.2882L54.5883 8.35558C54.5295 8.00472 54.3723 7.67679 54.1344 7.40846L54.0645 7.32858L53.9365 7.20305L46.8829 1.24648L47.0808 1.44048C46.9189 1.2506 46.7157 1.09872 46.4861 0.996024C46.2565 0.893332 46.0062 0.842439 45.7539 0.8471H43.6122C43.2639 0.840335 42.9236 0.948887 42.6461 1.1552C42.3547 0.95013 42.0038 0.842133 41.6451 0.8471H39.5034C39.2225 0.842632 38.9454 0.910975 38.7001 1.04523C38.4549 1.17948 38.2501 1.37488 38.1067 1.61164C37.8855 1.94979 37.8023 2.35721 37.8738 2.75275L38.1416 4.60133C37.9642 4.50277 37.7635 4.45162 37.5596 4.453H27.1887C26.8166 4.45529 26.4531 4.56221 26.1411 4.76109C25.8395 4.9462 25.5973 5.21127 25.4428 5.52562L24.6396 4.85238C24.3235 4.56565 23.9063 4.41023 23.4757 4.41877H7.20353C6.83012 4.42543 6.46501 4.5277 6.14436 4.71545C5.70569 4.96717 5.38421 5.37645 5.24809 5.85655L0.0801167 22.802C-0.0164452 23.0812 -0.0259442 23.3824 0.0528362 23.6669C0.131617 23.9514 0.295109 24.2065 0.522426 24.3996C0.581658 24.4488 0.643851 24.4945 0.708664 24.5365C0.708664 24.5365 0.603891 24.468 0.545692 24.411L7.59931 30.379C7.89769 30.6483 8.28781 30.7988 8.69336 30.8011H25.0936C25.4681 30.7916 25.8335 30.6853 26.1528 30.493C26.3334 30.3963 26.495 30.2688 26.63 30.1165L26.6882 30.0366L26.7813 29.9225L26.8512 29.797L27.6194 30.4474C27.9135 30.706 28.2951 30.8483 28.6902 30.8468H45.1253C45.4994 30.8346 45.8641 30.7285 46.1845 30.5387C46.361 30.436 46.5217 30.3092 46.6618 30.1621L46.7199 30.0823L46.813 29.9682C46.8625 29.896 46.9055 29.8196 46.941 29.7399C46.9791 29.6707 47.0103 29.5981 47.0342 29.5231L51.7482 14.0497V13.9128C51.754 13.8597 51.754 13.8061 51.7482 13.753V13.6504C51.7539 13.6163 51.7539 13.5817 51.7482 13.5476C51.7535 13.4755 51.7535 13.403 51.7482 13.3308H53.2614C53.393 13.3426 53.5255 13.3426 53.6571 13.3308H53.7619C53.8471 13.3059 53.9291 13.2714 54.0063 13.2281H54.1227L54.3322 13.0684L54.4253 12.9999L54.5883 12.7945V12.7261L54.7047 12.532C54.6982 12.4943 54.6982 12.4557 54.7047 12.418C54.6985 12.3994 54.6985 12.3794 54.7047 12.3609C54.7294 12.294 54.7489 12.2253 54.7629 12.1555C54.7575 12.133 54.7575 12.1095 54.7629 12.087C54.7572 12.053 54.7572 12.0183 54.7629 11.9843C54.7629 11.9843 54.9957 11.5393 54.9957 11.5165Z" fill="black"/>
<path id="Vector_2" d="M23.9527 5.71971C24.0145 5.77449 24.0576 5.84652 24.0764 5.92609C24.0952 6.00567 24.0885 6.08896 24.0575 6.16474L18.9012 23.0988C18.8362 23.2836 18.7034 23.4382 18.5287 23.5324C18.3865 23.6256 18.222 23.6807 18.0514 23.6922H1.66292C1.52296 23.6856 1.39036 23.6287 1.29045 23.5324C1.23101 23.4785 1.18929 23.4084 1.17063 23.3313C1.15197 23.254 1.15722 23.1731 1.18569 23.0988L6.35367 6.16474C6.41322 5.97752 6.54188 5.81882 6.71449 5.71971C6.859 5.63317 7.02275 5.58227 7.19172 5.57136H23.5802C23.7191 5.57267 23.8522 5.62571 23.9527 5.71971ZM15.3976 19.6869L18.4821 9.57664H9.84557L6.77268 19.6869H15.3976ZM39.5963 5.89087C39.6522 5.95457 39.7221 6.00509 39.8007 6.03868C39.8793 6.07226 39.9646 6.08805 40.0503 6.08485H42.1803C42.2614 6.08563 42.3413 6.06613 42.4127 6.0282C42.4839 5.99026 42.5441 5.93514 42.5877 5.86804C42.6255 5.81563 42.6522 5.7563 42.6662 5.69357C42.6802 5.63085 42.6812 5.56601 42.6691 5.5029L42.2501 2.49037C42.2102 2.35095 42.1386 2.2222 42.0407 2.11381C41.9847 2.0501 41.9148 1.99958 41.8362 1.966C41.7576 1.93241 41.6723 1.91663 41.5867 1.91982H39.4566C39.3755 1.91905 39.2955 1.93855 39.2243 1.97648C39.153 2.01442 39.0927 2.06953 39.0493 2.13664C38.9678 2.29639 38.9329 2.39908 38.9678 2.49037L39.3984 5.5029C39.4205 5.64958 39.4899 5.78551 39.5963 5.89087ZM46.3589 2.46755C46.319 2.32812 46.2473 2.19937 46.1494 2.09098C46.0958 2.02751 46.028 1.97701 45.9513 1.94336C45.8746 1.90972 45.791 1.89385 45.7071 1.897H43.5654C43.4856 1.89477 43.4067 1.91374 43.3371 1.95191C43.2674 1.99008 43.2096 2.04603 43.1697 2.11381C43.0922 2.21504 43.0587 2.3422 43.0766 2.46755L43.5072 5.48007C43.5342 5.62521 43.6028 5.75979 43.7051 5.86804C43.762 5.9305 43.8321 5.98018 43.9104 6.01366C43.9888 6.04714 44.0735 6.06364 44.159 6.06202H46.3007C46.3803 6.06306 46.4587 6.04358 46.5281 6.00553C46.5976 5.96747 46.6557 5.9122 46.6965 5.84523C46.737 5.79418 46.7652 5.73487 46.7794 5.67169C46.7935 5.60851 46.793 5.54304 46.7779 5.48007L46.3589 2.46755ZM37.7223 7.03198L37.5128 5.54854H27.1885C27.0264 5.5573 26.8696 5.60853 26.7345 5.69688C26.6488 5.74271 26.5742 5.80624 26.5159 5.88307C26.4577 5.9599 26.4171 6.04821 26.3971 6.14191L25.5357 8.97184C25.5013 9.04256 25.4896 9.12191 25.502 9.19931C25.5145 9.27671 25.5506 9.34856 25.6055 9.40549C25.7037 9.49594 25.8318 9.54866 25.9664 9.55384H38.5139L35.4294 19.6641H22.9168C22.7554 19.6677 22.5983 19.7151 22.4629 19.8009C22.2983 19.9035 22.178 20.0619 22.1253 20.246L21.2523 23.076C21.2238 23.1486 21.2164 23.2275 21.2307 23.304C21.2452 23.3805 21.2808 23.4516 21.3338 23.5095C21.4289 23.6061 21.558 23.6632 21.6946 23.6693H38.1297C38.2997 23.655 38.4635 23.6001 38.6069 23.5095C38.7788 23.4149 38.9077 23.26 38.9678 23.076L43.6934 7.60253H38.3741C38.2897 7.60416 38.2059 7.5888 38.1279 7.5574C38.0498 7.52599 37.9791 7.4792 37.9202 7.41994C37.824 7.31647 37.7559 7.19089 37.7223 7.0548V7.03198Z" fill="white"/>
</g>
<defs>
<clipPath id="clip0_741_1481">
<rect width="55" height="30" fill="white" transform="translate(0 0.846802)"/>
</clipPath>
</defs>
</svg>
